<?xml version="1.0" standalone="no"?> <!DOCTYPE svg PUBLIC "-//W3C//DTD SVG 20010904//EN" "http://www.w3.org/TR/2001/REC-SVG-20010904/DTD/svg10.dtd"> <svg version="1.0" xmlns="http://www.w3.org/2000/svg" width="600.000000pt" height="400.000000pt" viewBox="0 0 600.000000 400.000000" preserveAspectRatio="xMidYMid meet"> <g transform="translate(0.000000,400.000000) scale(0.100000,-0.100000)" fill="#000000" stroke="none"> <path d="M2901 3143 c-23 -43 -70 -123 -106 -177 l-65 -100 0 -690 0 -691 -122 123 c-68 68 -166 158 -220 200 l-96 77 144 3 144 3 0 109 0 110 -351 0 -351 0 -99 -52 c-55 -29 -99 -55 -99 -58 0 -3 59 -36 132 -75 465 -247 838 -610 1083 -1055 25 -46 47 -85 48 -86 1 -1 3 546 4 1217 0 670 -1 1219 -2 1219 -2 0 -22 -35 -44 -77z"/> <path d="M3060 2000 l0 -1225 68 120 c38 66 87 147 110 180 l42 60 0 328 c0 180 3 327 7 327 3 0 71 -67 151 -150 79 -82 147 -150 150 -150 4 1 42 34 85 74 l78 73 -128 126 -128 127 318 0 318 0 99 53 c55 28 100 54 100 57 0 3 -26 18 -58 35 -311 162 -506 300 -718 510 -175 174 -298 335 -423 556 l-71 124 0 -1225z m517 229 c48 -41 102 -84 118 -96 l30 -22 -222 -1 -223 0 0 202 0 202 104 -106 c57 -58 144 -138 193 -179z"/> </g> </svg>